:SAMPLES-PER-SECOND 30
:FULLY-SPECIFIED
:DEGREES
149
root  -53.0194 39.8239 3.9448 -2.75011 -66.9809 1.49358
RightUpLeg  3.93961 -13.344 -2.74044
RightLeg  12.0649 -16.4046 2.52249
RightFoot  -13.4831 -0.115185 -1.28427
RightToes  3.49245e-010 0 -3.6325e-017
Spine  -23.4619 -9.40486 -3.82535
Spine1  39.12 -12.3693 7.39113
HEad  -12.8174 -2.31107 -4.71144
LeftShoulder1  -0.276783 4.20672 -33.2879
LeftArm  -8.33531 8.54115 -35.6465
LeftForeArm  14.1017 0.893349 -5.45511
LeftHand  -0.143496 8.82102 -3.18503
RightShoulder  -0.652801 -5.34004 28.8217
RightArm  11.9884 10.1358 42.1956
RightForeArm  17.886 1.92524 6.7819
RightHand  0.116277 0.584943 2.20119
LeftUpLeg  -22.6354 -9.39062 1.02266
LeftLeg  26.8603 -8.73727 -4.47422
LeftFoot  -0.989386 0.444623 -4.85975
LeftToes  -5.36635e-011 -6.70219e-011 5.24975e-011
150
root  -53.6404 39.7656 4.05675 -1.80157 -67.8845 1.17268
RightUpLeg  3.75998 -13.4323 -2.79236
RightLeg  13.1341 -15.4624 2.94043
RightFoot  -14.6556 -0.142969 -1.51309
RightToes  3.49245e-010 0 -3.6325e-017
Spine  -23.2399 -8.96807 -3.19011
Spine1  38.6246 -12.0349 6.84265
HEad  -13.396 -2.17356 -4.82995
LeftShoulder1  -0.213333 4.05196 -32.8024
LeftArm  -7.93812 4.60387 -36.5072
LeftForeArm  11.6681 0.825514 -5.86555
LeftHand  -0.231373 11.2918 -3.16311
RightShoulder  -0.467053 -4.85245 27.7417
RightArm  9.6275 16.2928 42.3958
RightForeArm  17.6802 -2.99557 6.17413
RightHand  0.0987102 0.0892408 2.05968
LeftUpLeg  -22.4346 -10.5243 1.26309
LeftLeg  18.1476 -10.3914 -3.49724
LeftFoot  -0.888458 0.559373 -6.04602
LeftToes  -5.36635e-011 -6.70219e-011 5.24975e-011
151
root  -54.3764 39.6489 4.15208 -1.1633 -68.0683 0.798523
RightUpLeg  4.06364 -14.234 -3.09271
RightLeg  14.718 -14.6472 3.44618
RightFoot  -16.0014 -0.182279 -1.81186
RightToes  3.49245e-010 0 -3.6325e-017
Spine  -23.7245 -9.1622 -3.88284
Spine1  39.5494 -12.4457 7.04244
HEad  -13.4701 -2.06922 -4.54048
LeftShoulder1  -0.13827 3.86054 -32.6875
LeftArm  -9.7179 0.213138 -37.409
LeftForeArm  13.0805 -1.1193 -5.13048
LeftHand  -0.26544 11.8573 -3.47249
RightShoulder  -0.268404 -4.30137 26.1726
RightArm  6.4774 21.7973 42.6341
RightForeArm  14.1203 -5.75798 5.10744
RightHand  -0.0431931 -0.0734074 -0.879017
LeftUpLeg  -21.9573 -10.7173 1.05675
LeftLeg  13.0129 -12.3256 -2.82911
LeftFoot  -0.313204 0.570379 -5.87036
LeftToes  -5.36635e-011 -6.70219e-011 5.24975e-011
152
root  -55.1989 39.5425 4.22524 -0.916397 -67.1051 0.687042
RightUpLeg  5.36689 -19.4783 -4.49467
RightLeg  16.0782 -10.5104 4.60138
RightFoot  -17.0552 -0.214591 -2.007
RightToes  3.49245e-010 0 -3.6325e-017
Spine  -24.7282 -10.3784 -6.20404
Spine1  41.5613 -13.8679 7.64304
HEad  -13.4281 -1.47255 -3.90996
LeftShoulder1  -0.0567089 3.65002 -32.2539
LeftArm  -9.45163 -4.77545 -37.6547
LeftForeArm  11.373 -3.5648 -5.61591
LeftHand  -0.152434 9.8142 -2.31077
RightShoulder  -0.0995632 -3.80646 24.2745
RightArm  3.38664 26.5116 42.8181
RightForeArm  10.0892 -5.62022 3.94523
RightHand  -0.103272 1.36381 -1.93362
LeftUpLeg  -21.4202 -10.1785 -0.0842672
LeftLeg  11.5199 -14.7483 -2.54929
LeftFoot  3.3576 0.345635 -3.08317
LeftToes  -5.36635e-011 -6.70219e-011 5.24975e-011
153
root  -56.1646 39.3877 4.32356 0.263016 -64.8603 -0.285507
RightUpLeg  7.11841 -33.4849 -7.29639
RightLeg  19.9035 1.37994 5.49698
RightFoot  -17.8078 -0.155451 -0.755158
RightToes  3.49245e-010 0 -3.6325e-017
Spine  -26.4499 -12.3557 -9.21272
Spine1  44.8099 -16.2188 8.69435
HEad  -13.3305 -1.29736 -3.47133
LeftShoulder1  0.149369 3.10338 -31.097
LeftArm  -9.16609 -9.44194 -38.1566
LeftForeArm  9.18259 -7.3388 -6.20628
LeftHand  -0.0317164 8.04424 0.382639
RightShoulder  -0.124394 -3.8976 23.3857
RightArm  1.17619 31.8067 41.9053
RightForeArm  7.17363 -3.92178 3.32129
RightHand  -0.05886 2.35265 -1.11602
LeftUpLeg  -22.0652 -12.1607 0.183971
LeftLeg  14.4012 -15.0817 -3.7258
LeftFoot  6.69517 -0.277959 1.61575
LeftToes  -5.36635e-011 -6.70219e-011 5.24975e-011
154
root  -57.2927 39.3176 4.39426 2.04321 -61.1652 -1.99797
RightUpLeg  9.61959 -49.055 -11.6185
RightLeg  26.907 14.3328 6.98357
RightFoot  -16.5076 0.0319273 3.70605
RightToes  3.49245e-010 0 -3.6325e-017
Spine  -28.6721 -15.298 -13.1563
Spine1  50.0393 -19.8031 10.1096
HEad  -14.8225 -0.679877 -2.22706
LeftShoulder1  0.312605 2.63287 -29.8484
LeftArm  -10.3138 -15.0011 -38.8
LeftForeArm  8.45761 -10.6884 -5.62022
LeftHand  -0.022621 7.77432 0.951807
RightShoulder  -0.067397 -3.70833 22.2113
RightArm  -0.620768 37.0144 41.1534
RightForeArm  4.43324 -1.53309 2.99548
RightHand  -0.0625854 4.00422 -0.992675
LeftUpLeg  -23.3053 -14.9629 1.45163
LeftLeg  19.0583 -15.3742 -5.55268
LeftFoot  3.53596 -0.327189 2.33059
LeftToes  -5.36635e-011 -6.70219e-011 5.24975e-011
155
root  -58.5494 39.4591 4.49693 3.94682 -56.6782 -4.67162
RightUpLeg  12.9873 -53.3971 -16.0926
RightLeg  34.0943 16.3128 11.3534
RightFoot  -10.4393 -0.174585 10.3476
RightToes  3.49245e-010 0 -3.6325e-017
Spine  -30.6485 -18.7056 -17.3004
Spine1  56.8376 -24.0905 11.4712
HEad  -16.1511 -0.268572 -2.08064
LeftShoulder1  0.54089 1.92223 -28.0668
LeftArm  -10.6438 -20.419 -39.2927
LeftForeArm  5.85892 -14.2635 -4.95016
LeftHand  -0.034031 8.6941 0.621922
RightShoulder  0.158824 -2.86317 19.4227
RightArm  -1.81938 41.3763 41.0259
RightForeArm  1.37734 1.06215 2.93413
RightHand  -0.21638 4.59223 -2.82484
LeftUpLeg  -22.303 -16.1702 2.88656
LeftLeg  21.3406 -18.2342 -7.39381
LeftFoot  1.56968 -0.350551 3.01782
LeftToes  -5.36635e-011 -6.70219e-011 5.24975e-011
156
root  -59.6033 39.6347 4.60171 7.25449 -53.1872 -7.93524
RightUpLeg  14.111 -57.2415 -18.7384
RightLeg  40.7115 18.1817 15.7815
RightFoot  -2.64364 -1.00731 13.3723
RightToes  3.49245e-010 0 -3.6325e-017
Spine  -33.2133 -21.2006 -19.1203
Spine1  62.9341 -27.4169 12.3767
HEad  -17.6885 -0.49101 -1.8515
LeftShoulder1  0.796715 1.08017 -26.7097
LeftArm  -11.2115 -26.7668 -38.5142
LeftForeArm  4.27265 -17.1461 -4.59313
LeftHand  0.014278 7.51036 2.63904
RightShoulder  0.347508 -1.99598 16.5812
RightArm  -4.57127 45.5471 40.2016
RightForeArm  0.439031 3.84932 2.2878
RightHand  -0.214545 4.97923 -2.68495
LeftUpLeg  -22.2334 -14.3847 5.1328
LeftLeg  23.0933 -22.8465 -10.0085
LeftFoot  0.0831873 -0.404833 4.03937
LeftToes  -5.36635e-011 -6.70219e-011 5.24975e-011
157
root  -60.4593 39.7909 4.75675 9.90054 -51.4969 -8.9072
RightUpLeg  11.7539 -59.3768 -18.4448
RightLeg  43.3366 18.2867 17.3266
RightFoot  -0.880101 -1.08446 11.6871
RightToes  3.49245e-010 0 -3.6325e-017
Spine  -37.2297 -22.965 -19.8149
Spine1  69.244 -29.4416 12.2302
HEad  -19.5701 -0.498304 -2.30502
LeftShoulder1  0.936228 0.520838 -25.1509
LeftArm  -13.5427 -33.4821 -37.5861
LeftForeArm  5.30933 -19.4377 -4.27861
LeftHand  -0.017253 6.83211 1.54628
RightShoulder  0.41914 -1.47489 13.9458
RightArm  -7.57031 49.844 38.7593
RightForeArm  -2.27434 6.24777 1.8137
RightHand  -0.31876 5.79615 -3.63865
LeftUpLeg  -23.161 -13.4466 6.57575
LeftLeg  23.3878 -25.0288 -11.0602
LeftFoot  -0.794845 -0.436625 4.77458
LeftToes  -5.36635e-011 -6.70219e-011 5.24975e-011
158
root  -61.1086 40.0413 4.88655 13.5824 -50.7894 -10.1149
RightUpLeg  6.00189 -60.469 -14.0463
RightLeg  41.1967 16.3296 14.5278
RightFoot  -3.3564 -0.746533 10.319
RightToes  3.49245e-010 0 -3.6325e-017
Spine  -41.6917 -23.8232 -19.5119
Spine1  73.9975 -31.0956 13.0658
HEad  -21.4707 -0.56137 -2.51285
LeftShoulder1  1.05308 -0.0310852 -23.5591
LeftArm  -16.9892 -39.252 -36.6136
LeftForeArm  6.49998 -22.0454 -4.40346
LeftHand  -0.0121656 6.31938 2.33256
RightShoulder  0.48313 -0.899654 11.4634
RightArm  -11.4481 53.2646 35.8471
RightForeArm  -5.09315 8.60752 1.34108
RightHand  -0.322391 6.26772 -3.53577
LeftUpLeg  -24.4183 -12.9323 8.37089
LeftLeg  21.6942 -25.927 -10.5954
LeftFoot  -0.738273 -0.445094 4.82558
LeftToes  -5.36635e-011 -6.70219e-011 5.24975e-011
159
root  -60.6382 40.1038 5.19565 18.8406 -52.661 -13.6408
RightUpLeg  -4.56116 -57.9507 -5.23121
RightLeg  36.4624 13.4906 9.90463
RightFoot  -5.04726 -0.514577 8.76875
RightToes  3.49245e-010 0 -3.6325e-017
Spine  -43.6309 -20.3239 -10.2627
Spine1  72.8605 -27.7569 9.61385
HEad  -23.1628 -0.987565 -2.67829
LeftShoulder1  1.20567 -0.846749 -21.2973
LeftArm  -22.2733 -44.096 -36.0162
LeftForeArm  9.17267 -24.5177 -4.7617
LeftHand  -0.0223597 5.99845 1.79948
RightShoulder  0.518253 -0.418746 9.56593
RightArm  -15.7357 56.0208 31.7164
RightForeArm  -8.34445 10.5984 1.08235
RightHand  -0.367777 6.65015 -3.8874
LeftUpLeg  -27.0618 -13.8929 10.7619
LeftLeg  20.9488 -22.6411 -8.97414
LeftFoot  -0.326668 -0.404349 4.15843
LeftToes  -5.36635e-011 -6.70219e-011 5.24975e-011
160
root  -59.9639 40.0014 5.3621 21.0102 -55.3495 -14.9158
RightUpLeg  -10.4551 -48.325 -1.84409
RightLeg  28.4071 7.20728 6.3205
RightFoot  -6.73788 -0.464824 10.3218
RightToes  3.49245e-010 0 -3.6325e-017
Spine  -38.8619 -16.0052 -1.31165
Spine1  65.7057 -23.0369 5.72322
HEad  -24.9838 -1.01253 -2.09174
LeftShoulder1  1.30561 -1.46478 -19.802
LeftArm  -26.4645 -48.6684 -34.1261
LeftForeArm  10.059 -26.2574 -5.10455
LeftHand  -0.0236705 6.41461 1.15669
RightShoulder  0.561734 0.31843 7.10792
RightArm  -20.5816 58.1799 28.3757
RightForeArm  -9.78396 11.5335 0.49359
RightHand  -0.279391 6.76704 -3.01431
LeftUpLeg  -28.8463 -14.712 11.1351
LeftLeg  20.9581 -19.1298 -7.60712
LeftFoot  0.168283 -0.38548 3.84426
LeftToes  -5.36635e-011 -6.70219e-011 5.24975e-011
161
root  -59.6316 39.7986 5.17444 18.4218 -56.7339 -12.4774
RightUpLeg  -8.76591 -23.006 -6.21458
RightLeg  17.5511 -10.5321 4.30251
RightFoot  -5.76953 -0.687016 13.428
RightToes  3.49245e-010 0 -3.6325e-017
Spine  -28.9568 -14.2029 0.709584
Spine1  56.2107 -20.9818 5.63752
HEad  -25.7858 -1.32014 -1.68817
LeftShoulder1  1.43002 -2.23414 -18.3205
LeftArm  -28.9459 -52.8882 -30.631
LeftForeArm  8.73073 -26.5939 -5.25287
LeftHand  -0.0259817 5.53035 1.67614
RightShoulder  0.560937 0.8237 5.16524
RightArm  -25.0904 60.2039 25.1294
RightForeArm  -12.7728 11.9142 0.0967778
RightHand  -0.350934 6.37967 -3.79345
LeftUpLeg  -29.0975 -14.6626 9.35972
LeftLeg  21.7475 -18.3226 -7.579
LeftFoot  0.241324 -0.368256 3.57056
LeftToes  -5.36635e-011 -6.70219e-011 5.24975e-011
